# xmcd
#
# Track frame offsets:
#	150
#	15882
#	30902
#	48892
#	74082
#	89468
#	113263
#	129714
#	144328
#	169951
#	188989
#	204831
#	214627
#	234659
#	246086
#	268237
#	277515
#
# Disc length: 3960 seconds
#
# Revision: 2
# Processed by: cddbd v1.5.1PL0 Copyright (c) Steve Scherf et al.
# Submitted via: audiograbber 1.83.01
#
DISCID=e20f7611
DTITLE=Paulo Mafra and Thulio Viola - Ao Vivo Em Rondonópolis
DYEAR=2005
DGENRE=Sertanejo
TTITLE0=Com Todos, Menos Comigo
TTITLE1=Argentina
TTITLE2=Fascina
TTITLE3=Pra Lá De Bagdá/anunciação
TTITLE4=Saudade Machuca
TTITLE5=Chamada A Cobrar/telefonema
TTITLE6=Deixa Eu Te Amar
TTITLE7=Solitário
TTITLE8=Antes De Perder Você/passe Livre/telefone Mudo/paixaão Proibida
TTITLE9=Desatino
TTITLE10=Esqueci
TTITLE11=Sistema Bruto
TTITLE12=Pagode Em Brasília/morena Bonita
TTITLE13=Pagode Do Gago
TTITLE14=Coração Idiota
TTITLE15=Zona
TTITLE16=Dois Corações E Uma História
EXTD=Este CD foi gravado AO VIVO em Junho de 2005, na Choperia Leopoldo em Rond
EXTD=onópolis - Mato Grosso.
EXTT0=
EXTT1=
EXTT2=
EXTT3=
EXTT4=
EXTT5=
EXTT6=
EXTT7=
EXTT8=
EXTT9=
EXTT10=
EXTT11=
EXTT12=
EXTT13=
EXTT14=
EXTT15=
EXTT16=
PLAYORDER=
